<svg width="35" height="35" viewBox="0 0 35 35" fill="none" xmlns="http://www.w3.org/2000/svg">
<path d="M20.5839 32.8123C20.5839 33.0051 20.5067 33.191 20.3689 33.3278C20.231 33.4645 20.0436 33.5411 19.8492 33.5411H2.20544C1.79882 33.5411 1.47075 33.2157 1.47075 32.8124V29.1661H13.2328V27.7087H1.47075V7.29117H13.2328V5.83374H1.47075V2.18746C1.47075 1.78416 1.79882 1.45876 2.20544 1.45876H19.8492C20.0435 1.45876 20.231 1.53533 20.3689 1.67205C20.5067 1.80877 20.5839 1.9947 20.5839 2.18749V6.56246H22.0547V2.18749C22.0547 0.97891 21.0677 0 19.8492 0H2.20547C0.986956 0 0 0.97891 0 2.18749V32.8123C0 34.0209 0.986956 34.9998 2.20547 34.9998H19.8492C21.0677 34.9998 22.0547 34.0209 22.0547 32.8123V28.4373H20.5839V32.8123Z" fill="#A100FF"/>
<path d="M8.63086 2.87671H12.9459V4.31506H8.63086V2.87671Z" fill="#A100FF"/>
<path d="M8.63086 30.6848H12.9459V32.1231H8.63086V30.6848Z" fill="#A100FF"/>
<path d="M22.9595 17.7395H24.4516C24.4502 15.9594 23.7412 14.2534 22.484 12.9948C21.2255 11.7377 19.5195 11.0287 17.7393 11.0273V12.5194C19.1237 12.5208 20.4507 13.0704 21.4297 14.0492C22.4088 15.028 22.9582 16.3551 22.9596 17.7396L22.9595 17.7395Z" fill="#A100FF"/>
<path fill-rule="evenodd" clip-rule="evenodd" d="M27.4246 25.6859C27.7097 25.4007 28.1731 25.4007 28.4583 25.6859L34.4026 31.6299C34.781 31.9959 34.9962 32.4977 35.0003 33.0228C35.0044 33.5492 34.7974 34.0537 34.4259 34.4252C34.0544 34.7968 33.5499 35.0038 33.0235 34.9997C32.4984 34.9956 31.9966 34.7803 31.6306 34.4019L25.6864 28.4577C25.4013 28.1726 25.4013 27.7092 25.6864 27.424L25.685 27.4227L26.0374 27.0704L24.1222 25.1552C22.1368 26.8826 19.5637 27.7764 16.9357 27.6544C14.3074 27.531 11.8289 26.4 10.0138 24.4944C8.19866 22.5901 7.18828 20.0594 7.1924 17.4285H8.65518C8.65518 19.755 9.57918 21.987 11.2257 23.6321C12.8709 25.2786 15.1027 26.2026 17.4291 26.2026C19.7556 26.2026 21.9875 25.2786 23.6326 23.6321C25.2791 21.9868 26.2031 19.755 26.2031 17.4285C26.2031 15.102 25.2791 12.8701 23.6326 11.225C21.9874 9.57853 19.7556 8.65452 17.4291 8.65452V7.19173C20.0599 7.18762 22.5907 8.198 24.4949 10.0131C26.4005 11.8283 27.5315 14.307 27.6549 16.9351C27.7769 19.5634 26.8831 22.1365 25.1557 24.1216L27.0723 26.0382L27.4246 25.6859ZM32.6639 33.3687C32.8585 33.562 33.1738 33.562 33.3685 33.3687V33.3687C33.5618 33.1741 33.5618 32.8601 33.3685 32.6655L27.941 27.2365L27.2363 27.9411L32.6639 33.3687Z" fill="#A100FF"/>
<path fill-rule="evenodd" clip-rule="evenodd" d="M15.3794 18.1632C15.1111 18.2767 14.8009 18.2144 14.596 18.0028L12.6489 16.0057H5.03545C3.84478 16.0057 2.87793 15.0155 2.87793 13.7929V10.8429C2.87793 9.62035 3.84478 8.6301 5.03545 8.6301H13.6655C14.8576 8.6301 15.8231 9.62035 15.8231 10.8429V17.4814C15.8231 17.7802 15.6478 18.0485 15.3794 18.1632ZM4.31739 10.8428V13.7928L4.31738 13.793C4.31738 14.2009 4.63966 14.5315 5.0361 14.5315H12.9475C13.1376 14.5315 13.321 14.6089 13.4559 14.7472L14.3863 15.7015V10.8428C14.3863 10.6478 14.3094 10.4597 14.1746 10.3214C14.0397 10.1831 13.8577 10.1057 13.6662 10.1057H5.0361C4.63967 10.1057 4.31739 10.4348 4.31739 10.8428Z" fill="#A100FF"/>
<path d="M5.75293 11.5068H12.9447V12.9451H5.75293V11.5068Z" fill="#A100FF"/>
<path d="M32.8423 4.31506H23.4932V5.78054H32.8423C33.0325 5.78054 33.2159 5.85746 33.3508 5.9948C33.4856 6.13215 33.5611 6.31894 33.5611 6.51261V9.44216C33.5611 9.6372 33.4856 9.8226 33.3508 9.95997C33.2159 10.0973 33.0325 10.1756 32.8423 10.1756H27.8084V11.6411H30.6847V12.803L28.7375 14.7863L29.7543 15.8219L31.9119 13.6243V13.623C32.0467 13.4856 32.1236 13.2988 32.1236 13.1052V11.6397H32.8423C34.0344 11.6397 35 10.6563 35 9.44216V6.5126C35 5.29848 34.0344 4.31508 32.8423 4.31508L32.8423 4.31506Z" fill="#A100FF"/>
<path d="M24.9326 7.19174H32.1244V8.63009H24.9326V7.19174Z" fill="#A100FF"/>
<path d="M2.87793 24.9314H4.31628V26.3697H2.87793V24.9314Z" fill="#A100FF"/>
<path d="M5.75293 24.9314H7.19128V26.3697H5.75293V24.9314Z" fill="#A100FF"/>
<path d="M2.87793 22.0547H4.31628V23.493H2.87793V22.0547Z" fill="#A100FF"/>
</svg>
